solid AutoCAD
   facet normal 3.5527137e-17 2.2204460e-16 -1.0000000e+00
      outer loop
         vertex 1.0000000e+02 1.0000000e-06 3.5527137e-15
         vertex 1.0000000e-06 1.0000000e-06 0.0000000e+00
         vertex 1.0000000e+02 2.0000010e+00 3.9968029e-15
      endloop
   endfacet
   facet normal 3.5527137e-17 2.2204460e-16 -1.0000000e+00
      outer loop
         vertex 1.0000000e+02 2.0000010e+00 3.9968029e-15
         vertex 1.0000000e-06 1.0000000e-06 0.0000000e+00
         vertex 1.0000000e-06 2.0000010e+00 4.4408921e-16
      endloop
   endfacet
   facet normal 1.0000000e+00 -0.0000000e+00 0.0000000e+00
      outer loop
         vertex 1.0000000e+02 1.0000000e-06 1.0000000e+01
         vertex 1.0000000e+02 1.0000000e-06 3.5527137e-15
         vertex 1.0000000e+02 2.0000010e+00 1.0000000e+01
      endloop
   endfacet
   facet normal 1.0000000e+00 -0.0000000e+00 0.0000000e+00
      outer loop
         vertex 1.0000000e+02 2.0000010e+00 1.0000000e+01
         vertex 1.0000000e+02 1.0000000e-06 3.5527137e-15
         vertex 1.0000000e+02 2.0000010e+00 3.9968029e-15
      endloop
   endfacet
   facet normal 0.0000000e+00 -0.0000000e+00 1.0000000e+00
      outer loop
         vertex 8.0000001e+01 1.0000000e-06 1.0000000e+01
         vertex 1.0000000e+02 1.0000000e-06 1.0000000e+01
         vertex 8.0000001e+01 2.0000010e+00 1.0000000e+01
      endloop
   endfacet
   facet normal -0.0000000e+00 0.0000000e+00 1.0000000e+00
      outer loop
         vertex 8.0000001e+01 2.0000010e+00 1.0000000e+01
         vertex 1.0000000e+02 1.0000000e-06 1.0000000e+01
         vertex 1.0000000e+02 2.0000010e+00 1.0000000e+01
      endloop
   endfacet
   facet normal -6.2469505e-01 0.0000000e+00 7.8086881e-01
      outer loop
         vertex 7.5000001e+01 1.0000000e-06 6.0000000e+00
         vertex 8.0000001e+01 1.0000000e-06 1.0000000e+01
         vertex 7.5000001e+01 2.0000010e+00 6.0000000e+00
      endloop
   endfacet
   facet normal -6.2469505e-01 0.0000000e+00 7.8086881e-01
      outer loop
         vertex 7.5000001e+01 2.0000010e+00 6.0000000e+00
         vertex 8.0000001e+01 1.0000000e-06 1.0000000e+01
         vertex 8.0000001e+01 2.0000010e+00 1.0000000e+01
      endloop
   endfacet
   facet normal 0.0000000e+00 -0.0000000e+00 1.0000000e+00
      outer loop
         vertex 6.8000001e+01 1.0000000e-06 6.0000000e+00
         vertex 7.5000001e+01 1.0000000e-06 6.0000000e+00
         vertex 6.8000001e+01 2.0000010e+00 6.0000000e+00
      endloop
   endfacet
   facet normal -0.0000000e+00 0.0000000e+00 1.0000000e+00
      outer loop
         vertex 6.8000001e+01 2.0000010e+00 6.0000000e+00
         vertex 7.5000001e+01 1.0000000e-06 6.0000000e+00
         vertex 7.5000001e+01 2.0000010e+00 6.0000000e+00
      endloop
   endfacet
   facet normal 1.0000000e+00 -0.0000000e+00 0.0000000e+00
      outer loop
         vertex 6.8000001e+01 1.0000000e-06 9.0000000e+00
         vertex 6.8000001e+01 1.0000000e-06 6.0000000e+00
         vertex 6.8000001e+01 2.0000010e+00 9.0000000e+00
      endloop
   endfacet
   facet normal 1.0000000e+00 -0.0000000e+00 0.0000000e+00
      outer loop
         vertex 6.8000001e+01 2.0000010e+00 9.0000000e+00
         vertex 6.8000001e+01 1.0000000e-06 6.0000000e+00
         vertex 6.8000001e+01 2.0000010e+00 6.0000000e+00
      endloop
   endfacet
   facet normal 0.0000000e+00 -0.0000000e+00 1.0000000e+00
      outer loop
         vertex 6.6000001e+01 1.0000000e-06 9.0000000e+00
         vertex 6.8000001e+01 1.0000000e-06 9.0000000e+00
         vertex 6.6000001e+01 2.0000010e+00 9.0000000e+00
      endloop
   endfacet
   facet normal -0.0000000e+00 0.0000000e+00 1.0000000e+00
      outer loop
         vertex 6.6000001e+01 2.0000010e+00 9.0000000e+00
         vertex 6.8000001e+01 1.0000000e-06 9.0000000e+00
         vertex 6.8000001e+01 2.0000010e+00 9.0000000e+00
      endloop
   endfacet
   facet normal -8.3205029e-01 0.0000000e+00 5.5470020e-01
      outer loop
         vertex 6.4000001e+01 1.0000000e-06 6.0000000e+00
         vertex 6.6000001e+01 1.0000000e-06 9.0000000e+00
         vertex 6.4000001e+01 2.0000010e+00 6.0000000e+00
      endloop
   endfacet
   facet normal -8.3205029e-01 0.0000000e+00 5.5470020e-01
      outer loop
         vertex 6.4000001e+01 2.0000010e+00 6.0000000e+00
         vertex 6.6000001e+01 1.0000000e-06 9.0000000e+00
         vertex 6.6000001e+01 2.0000010e+00 9.0000000e+00
      endloop
   endfacet
   facet normal 0.0000000e+00 -0.0000000e+00 1.0000000e+00
      outer loop
         vertex 5.5000001e+01 1.0000000e-06 6.0000000e+00
         vertex 6.4000001e+01 1.0000000e-06 6.0000000e+00
         vertex 5.5000001e+01 2.0000010e+00 6.0000000e+00
      endloop
   endfacet
   facet normal -0.0000000e+00 0.0000000e+00 1.0000000e+00
      outer loop
         vertex 5.5000001e+01 2.0000010e+00 6.0000000e+00
         vertex 6.4000001e+01 1.0000000e-06 6.0000000e+00
         vertex 6.4000001e+01 2.0000010e+00 6.0000000e+00
      endloop
   endfacet
   facet normal 7.0710678e-01 0.0000000e+00 7.0710678e-01
      outer loop
         vertex 3.5242642e+01 9.9999999e-07 2.5757359e+01
         vertex 5.5000001e+01 1.0000000e-06 6.0000000e+00
         vertex 3.5242642e+01 2.0000010e+00 2.5757359e+01
      endloop
   endfacet
   facet normal 7.0710678e-01 -0.0000000e+00 7.0710678e-01
      outer loop
         vertex 3.5242642e+01 2.0000010e+00 2.5757359e+01
         vertex 5.5000001e+01 1.0000000e-06 6.0000000e+00
         vertex 5.5000001e+01 2.0000010e+00 6.0000000e+00
      endloop
   endfacet
   facet normal 3.5692334e-02 0.0000000e+00 9.9936283e-01
      outer loop
         vertex 2.5000001e+01 9.9999999e-07 3.0000000e+01
         vertex 2.6033369e+01 9.9999999e-07 2.9963093e+01
         vertex 2.5000001e+01 2.0000010e+00 3.0000000e+01
      endloop
   endfacet
   facet normal 3.5692334e-02 -0.0000000e+00 9.9936283e-01
      outer loop
         vertex 2.5000001e+01 2.0000010e+00 3.0000000e+01
         vertex 2.6033369e+01 9.9999999e-07 2.9963093e+01
         vertex 2.6033369e+01 2.0000010e+00 2.9963093e+01
      endloop
   endfacet
   facet normal 1.0689512e-01 0.0000000e+00 9.9427030e-01
      outer loop
         vertex 2.6033369e+01 2.0000010e+00 2.9963093e+01
         vertex 2.6033369e+01 9.9999999e-07 2.9963093e+01
         vertex 2.7061471e+01 9.9999999e-07 2.9852561e+01
      endloop
   endfacet
   facet normal 1.0689512e-01 -0.0000000e+00 9.9427030e-01
      outer loop
         vertex 2.6033369e+01 2.0000010e+00 2.9963093e+01
         vertex 2.7061471e+01 9.9999999e-07 2.9852561e+01
         vertex 2.7061471e+01 2.0000010e+00 2.9852561e+01
      endloop
   endfacet
   facet normal 1.7755320e-01 0.0000000e+00 9.8411120e-01
      outer loop
         vertex 2.7061471e+01 2.0000010e+00 2.9852561e+01
         vertex 2.7061471e+01 9.9999999e-07 2.9852561e+01
         vertex 2.8079069e+01 9.9999999e-07 2.9668966e+01
      endloop
   endfacet
   facet normal 1.7755320e-01 -0.0000000e+00 9.8411120e-01
      outer loop
         vertex 2.7061471e+01 2.0000010e+00 2.9852561e+01
         vertex 2.8079069e+01 9.9999999e-07 2.9668966e+01
         vertex 2.8079069e+01 2.0000010e+00 2.9668966e+01
      endloop
   endfacet
   facet normal 2.4730650e-01 0.0000000e+00 9.6893730e-01
      outer loop
         vertex 2.8079069e+01 2.0000010e+00 2.9668966e+01
         vertex 2.8079069e+01 9.9999999e-07 2.9668966e+01
         vertex 2.9080976e+01 9.9999999e-07 2.9413244e+01
      endloop
   endfacet
   facet normal 2.4730650e-01 -0.0000000e+00 9.6893730e-01
      outer loop
         vertex 2.8079069e+01 2.0000010e+00 2.9668966e+01
         vertex 2.9080976e+01 9.9999999e-07 2.9413244e+01
         vertex 2.9080976e+01 2.0000010e+00 2.9413244e+01
      endloop
   endfacet
   facet normal 3.1579959e-01 0.0000000e+00 9.4882592e-01
      outer loop
         vertex 2.9080976e+01 2.0000010e+00 2.9413244e+01
         vertex 2.9080976e+01 9.9999999e-07 2.9413244e+01
         vertex 3.0062088e+01 9.9999999e-07 2.9086699e+01
      endloop
   endfacet
   facet normal 3.1579959e-01 -0.0000000e+00 9.4882592e-01
      outer loop
         vertex 2.9080976e+01 2.0000010e+00 2.9413244e+01
         vertex 3.0062088e+01 9.9999999e-07 2.9086699e+01
         vertex 3.0062088e+01 2.0000010e+00 2.9086699e+01
      endloop
   endfacet
   facet normal 3.8268343e-01 0.0000000e+00 9.2387953e-01
      outer loop
         vertex 3.0062088e+01 2.0000010e+00 2.9086699e+01
         vertex 3.0062088e+01 9.9999999e-07 2.9086699e+01
         vertex 3.1017404e+01 9.9999999e-07 2.8690994e+01
      endloop
   endfacet
   facet normal 3.8268343e-01 -0.0000000e+00 9.2387953e-01
      outer loop
         vertex 3.0062088e+01 2.0000010e+00 2.9086699e+01
         vertex 3.1017404e+01 9.9999999e-07 2.8690994e+01
         vertex 3.1017404e+01 2.0000010e+00 2.8690994e+01
      endloop
   endfacet
   facet normal 4.4761721e-01 0.0000000e+00 8.9422527e-01
      outer loop
         vertex 3.1017404e+01 2.0000010e+00 2.8690994e+01
         vertex 3.1017404e+01 9.9999999e-07 2.8690994e+01
         vertex 3.1942057e+01 9.9999999e-07 2.8228146e+01
      endloop
   endfacet
   facet normal 4.4761721e-01 -0.0000000e+00 8.9422527e-01
      outer loop
         vertex 3.1017404e+01 2.0000010e+00 2.8690994e+01
         vertex 3.1942057e+01 9.9999999e-07 2.8228146e+01
         vertex 3.1942057e+01 2.0000010e+00 2.8228146e+01
      endloop
   endfacet
   facet normal 5.1027003e-01 0.0000000e+00 8.6001424e-01
      outer loop
         vertex 3.1942057e+01 2.0000010e+00 2.8228146e+01
         vertex 3.1942057e+01 9.9999999e-07 2.8228146e+01
         vertex 3.2831335e+01 9.9999999e-07 2.7700513e+01
      endloop
   endfacet
   facet normal 5.1027003e-01 -0.0000000e+00 8.6001424e-01
      outer loop
         vertex 3.1942057e+01 2.0000010e+00 2.8228146e+01
         vertex 3.2831335e+01 9.9999999e-07 2.7700513e+01
         vertex 3.2831335e+01 2.0000010e+00 2.7700513e+01
      endloop
   endfacet
   facet normal 5.7032264e-01 0.0000000e+00 8.2142078e-01
      outer loop
         vertex 3.2831335e+01 2.0000010e+00 2.7700513e+01
         vertex 3.2831335e+01 9.9999999e-07 2.7700513e+01
         vertex 3.3680707e+01 2.0000010e+00 2.7110784e+01
      endloop
   endfacet
   facet normal 5.7032264e-01 0.0000000e+00 8.2142078e-01
      outer loop
         vertex 3.3680707e+01 2.0000010e+00 2.7110784e+01
         vertex 3.2831335e+01 9.9999999e-07 2.7700513e+01
         vertex 3.3680707e+01 9.9999999e-07 2.7110784e+01
      endloop
   endfacet
   facet normal 6.2746901e-01 0.0000000e+00 7.7864154e-01
      outer loop
         vertex 3.3680707e+01 2.0000010e+00 2.7110784e+01
         vertex 3.3680707e+01 9.9999999e-07 2.7110784e+01
         vertex 3.4485843e+01 9.9999999e-07 2.6461964e+01
      endloop
   endfacet
   facet normal 6.2746901e-01 -0.0000000e+00 7.7864154e-01
      outer loop
         vertex 3.3680707e+01 2.0000010e+00 2.7110784e+01
         vertex 3.4485843e+01 9.9999999e-07 2.6461964e+01
         vertex 3.4485843e+01 2.0000010e+00 2.6461964e+01
      endloop
   endfacet
   facet normal 6.8141794e-01 0.0000000e+00 7.3189452e-01
      outer loop
         vertex 3.4485843e+01 2.0000010e+00 2.6461964e+01
         vertex 3.4485843e+01 9.9999999e-07 2.6461964e+01
         vertex 3.5242642e+01 9.9999999e-07 2.5757359e+01
      endloop
   endfacet
   facet normal 6.8141794e-01 -0.0000000e+00 7.3189452e-01
      outer loop
         vertex 3.4485843e+01 2.0000010e+00 2.6461964e+01
         vertex 3.5242642e+01 9.9999999e-07 2.5757359e+01
         vertex 3.5242642e+01 2.0000010e+00 2.5757359e+01
      endloop
   endfacet
   facet normal 0.0000000e+00 -0.0000000e+00 1.0000000e+00
      outer loop
         vertex 1.0000000e-06 9.9999999e-07 3.0000000e+01
         vertex 2.5000001e+01 9.9999999e-07 3.0000000e+01
         vertex 1.0000000e-06 2.0000010e+00 3.0000000e+01
      endloop
   endfacet
   facet normal -0.0000000e+00 0.0000000e+00 1.0000000e+00
      outer loop
         vertex 1.0000000e-06 2.0000010e+00 3.0000000e+01
         vertex 2.5000001e+01 9.9999999e-07 3.0000000e+01
         vertex 2.5000001e+01 2.0000010e+00 3.0000000e+01
      endloop
   endfacet
   facet normal -1.0000000e+00 0.0000000e+00 0.0000000e+00
      outer loop
         vertex 1.0000000e-06 1.0000000e-06 0.0000000e+00
         vertex 1.0000000e-06 9.9999999e-07 3.0000000e+01
         vertex 1.0000000e-06 2.0000010e+00 4.4408921e-16
      endloop
   endfacet
   facet normal -1.0000000e+00 0.0000000e+00 0.0000000e+00
      outer loop
         vertex 1.0000000e-06 2.0000010e+00 4.4408921e-16
         vertex 1.0000000e-06 9.9999999e-07 3.0000000e+01
         vertex 1.0000000e-06 2.0000010e+00 3.0000000e+01
      endloop
   endfacet
   facet normal 1.5287463e-18 1.0000000e+00 2.2204460e-16
      outer loop
         vertex 1.0000000e-06 2.0000010e+00 3.0000000e+01
         vertex 3.5242642e+01 2.0000010e+00 2.5757359e+01
         vertex 1.0000000e-06 2.0000010e+00 4.4408921e-16
      endloop
   endfacet
   facet normal -2.6822322e-19 1.0000000e+00 2.2450332e-16
      outer loop
         vertex 1.0000000e-06 2.0000010e+00 4.4408921e-16
         vertex 3.5242642e+01 2.0000010e+00 2.5757359e+01
         vertex 5.5000001e+01 2.0000010e+00 6.0000000e+00
      endloop
   endfacet
   facet normal -7.8886091e-33 1.0000000e+00 2.2204460e-16
      outer loop
         vertex 1.0000000e-06 2.0000010e+00 4.4408921e-16
         vertex 5.5000001e+01 2.0000010e+00 6.0000000e+00
         vertex 1.0000000e+02 2.0000010e+00 3.9968029e-15
      endloop
   endfacet
   facet normal -0.0000000e+00 1.0000000e+00 2.2204460e-16
      outer loop
         vertex 1.0000000e+02 2.0000010e+00 3.9968029e-15
         vertex 5.5000001e+01 2.0000010e+00 6.0000000e+00
         vertex 6.4000001e+01 2.0000010e+00 6.0000000e+00
      endloop
   endfacet
   facet normal -0.0000000e+00 1.0000000e+00 2.2204460e-16
      outer loop
         vertex 1.0000000e+02 2.0000010e+00 3.9968029e-15
         vertex 6.4000001e+01 2.0000010e+00 6.0000000e+00
         vertex 6.8000001e+01 2.0000010e+00 6.0000000e+00
      endloop
   endfacet
   facet normal 0.0000000e+00 1.0000000e+00 2.9605947e-16
      outer loop
         vertex 6.8000001e+01 2.0000010e+00 6.0000000e+00
         vertex 6.4000001e+01 2.0000010e+00 6.0000000e+00
         vertex 6.6000001e+01 2.0000010e+00 9.0000000e+00
      endloop
   endfacet
   facet normal -0.0000000e+00 1.0000000e+00 2.9605947e-16
      outer loop
         vertex 6.8000001e+01 2.0000010e+00 6.0000000e+00
         vertex 6.6000001e+01 2.0000010e+00 9.0000000e+00
         vertex 6.8000001e+01 2.0000010e+00 9.0000000e+00
      endloop
   endfacet
   facet normal -2.8944354e-17 1.0000000e+00 -3.1088430e-17
      outer loop
         vertex 3.5242642e+01 2.0000010e+00 2.5757359e+01
         vertex 1.0000000e-06 2.0000010e+00 3.0000000e+01
         vertex 3.4485843e+01 2.0000010e+00 2.6461964e+01
      endloop
   endfacet
   facet normal -0.0000000e+00 1.0000000e+00 2.5103712e-16
      outer loop
         vertex 3.4485843e+01 2.0000010e+00 2.6461964e+01
         vertex 1.0000000e-06 2.0000010e+00 3.0000000e+01
         vertex 2.5000001e+01 2.0000010e+00 3.0000000e+01
      endloop
   endfacet
   facet normal 3.0094840e-16 1.0000000e+00 1.0579110e-15
      outer loop
         vertex 3.4485843e+01 2.0000010e+00 2.6461964e+01
         vertex 2.5000001e+01 2.0000010e+00 3.0000000e+01
         vertex 3.3680707e+01 2.0000010e+00 2.7110784e+01
      endloop
   endfacet
   facet normal -9.8261933e-17 1.0000000e+00 -1.4152409e-16
      outer loop
         vertex 3.3680707e+01 2.0000010e+00 2.7110784e+01
         vertex 2.5000001e+01 2.0000010e+00 3.0000000e+01
         vertex 3.2831335e+01 2.0000010e+00 2.7700513e+01
      endloop
   endfacet
   facet normal -1.1226407e-16 1.0000000e+00 -1.8921099e-16
      outer loop
         vertex 3.2831335e+01 2.0000010e+00 2.7700513e+01
         vertex 2.5000001e+01 2.0000010e+00 3.0000000e+01
         vertex 3.1942057e+01 2.0000010e+00 2.8228146e+01
      endloop
   endfacet
   facet normal 3.6914344e-16 1.0000000e+00 1.6969250e-15
      outer loop
         vertex 3.1942057e+01 2.0000010e+00 2.8228146e+01
         vertex 2.5000001e+01 2.0000010e+00 3.0000000e+01
         vertex 3.1017404e+01 2.0000010e+00 2.8690994e+01
      endloop
   endfacet
   facet normal -0.0000000e+00 1.0000000e+00 -0.0000000e+00
      outer loop
         vertex 3.1017404e+01 2.0000010e+00 2.8690994e+01
         vertex 2.5000001e+01 2.0000010e+00 3.0000000e+01
         vertex 3.0062088e+01 2.0000010e+00 2.9086699e+01
      endloop
   endfacet
   facet normal -0.0000000e+00 1.0000000e+00 -0.0000000e+00
      outer loop
         vertex 3.0062088e+01 2.0000010e+00 2.9086699e+01
         vertex 2.5000001e+01 2.0000010e+00 3.0000000e+01
         vertex 2.9080976e+01 2.0000010e+00 2.9413244e+01
      endloop
   endfacet
   facet normal -0.0000000e+00 1.0000000e+00 -0.0000000e+00
      outer loop
         vertex 2.9080976e+01 2.0000010e+00 2.9413244e+01
         vertex 2.5000001e+01 2.0000010e+00 3.0000000e+01
         vertex 2.8079069e+01 2.0000010e+00 2.9668966e+01
      endloop
   endfacet
   facet normal -0.0000000e+00 1.0000000e+00 -0.0000000e+00
      outer loop
         vertex 2.8079069e+01 2.0000010e+00 2.9668966e+01
         vertex 2.5000001e+01 2.0000010e+00 3.0000000e+01
         vertex 2.7061471e+01 2.0000010e+00 2.9852561e+01
      endloop
   endfacet
   facet normal -0.0000000e+00 1.0000000e+00 -0.0000000e+00
      outer loop
         vertex 2.7061471e+01 2.0000010e+00 2.9852561e+01
         vertex 2.5000001e+01 2.0000010e+00 3.0000000e+01
         vertex 2.6033369e+01 2.0000010e+00 2.9963093e+01
      endloop
   endfacet
   facet normal -0.0000000e+00 1.0000000e+00 2.2204460e-16
      outer loop
         vertex 6.8000001e+01 2.0000010e+00 6.0000000e+00
         vertex 7.5000001e+01 2.0000010e+00 6.0000000e+00
         vertex 1.0000000e+02 2.0000010e+00 3.9968029e-15
      endloop
   endfacet
   facet normal 0.0000000e+00 1.0000000e+00 2.2204460e-16
      outer loop
         vertex 1.0000000e+02 2.0000010e+00 3.9968029e-15
         vertex 7.5000001e+01 2.0000010e+00 6.0000000e+00
         vertex 1.0000000e+02 2.0000010e+00 1.0000000e+01
      endloop
   endfacet
   facet normal 0.0000000e+00 1.0000000e+00 2.2204460e-16
      outer loop
         vertex 1.0000000e+02 2.0000010e+00 1.0000000e+01
         vertex 7.5000001e+01 2.0000010e+00 6.0000000e+00
         vertex 8.0000001e+01 2.0000010e+00 1.0000000e+01
      endloop
   endfacet
   facet normal -1.2085465e-24 -1.0000000e+00 -2.2204460e-16
      outer loop
         vertex 1.0000000e-06 1.0000000e-06 0.0000000e+00
         vertex 3.5242642e+01 9.9999999e-07 2.5757359e+01
         vertex 1.0000000e-06 9.9999999e-07 3.0000000e+01
      endloop
   endfacet
   facet normal 1.5909486e-23 -1.0000000e+00 -2.2204446e-16
      outer loop
         vertex 1.0000000e-06 9.9999999e-07 3.0000000e+01
         vertex 3.5242642e+01 9.9999999e-07 2.5757359e+01
         vertex 3.4485843e+01 9.9999999e-07 2.6461964e+01
      endloop
   endfacet
   facet normal 0.0000000e+00 -1.0000000e+00 -2.2204462e-16
      outer loop
         vertex 1.0000000e-06 9.9999999e-07 3.0000000e+01
         vertex 3.4485843e+01 9.9999999e-07 2.6461964e+01
         vertex 2.5000001e+01 9.9999999e-07 3.0000000e+01
      endloop
   endfacet
   facet normal 1.8332577e-24 -1.0000000e+00 -2.2204461e-16
      outer loop
         vertex 2.5000001e+01 9.9999999e-07 3.0000000e+01
         vertex 3.4485843e+01 9.9999999e-07 2.6461964e+01
         vertex 3.3680707e+01 9.9999999e-07 2.7110784e+01
      endloop
   endfacet
   facet normal -6.4905061e-23 -1.0000000e+00 -2.2204481e-16
      outer loop
         vertex 2.5000001e+01 9.9999999e-07 3.0000000e+01
         vertex 3.3680707e+01 9.9999999e-07 2.7110784e+01
         vertex 3.2831335e+01 9.9999999e-07 2.7700513e+01
      endloop
   endfacet
   facet normal 2.1204321e-25 -1.0000000e+00 -2.2204461e-16
      outer loop
         vertex 3.5242642e+01 9.9999999e-07 2.5757359e+01
         vertex 1.0000000e-06 1.0000000e-06 0.0000000e+00
         vertex 5.5000001e+01 1.0000000e-06 6.0000000e+00
      endloop
   endfacet
   facet normal 7.8886091e-33 -1.0000000e+00 -2.2204460e-16
      outer loop
         vertex 5.5000001e+01 1.0000000e-06 6.0000000e+00
         vertex 1.0000000e-06 1.0000000e-06 0.0000000e+00
         vertex 1.0000000e+02 1.0000000e-06 3.5527137e-15
      endloop
   endfacet
   facet normal 0.0000000e+00 -1.0000000e+00 -2.2204460e-16
      outer loop
         vertex 5.5000001e+01 1.0000000e-06 6.0000000e+00
         vertex 1.0000000e+02 1.0000000e-06 3.5527137e-15
         vertex 6.4000001e+01 1.0000000e-06 6.0000000e+00
      endloop
   endfacet
   facet normal 0.0000000e+00 -1.0000000e+00 -2.2204460e-16
      outer loop
         vertex 6.4000001e+01 1.0000000e-06 6.0000000e+00
         vertex 1.0000000e+02 1.0000000e-06 3.5527137e-15
         vertex 6.8000001e+01 1.0000000e-06 6.0000000e+00
      endloop
   endfacet
   facet normal 0.0000000e+00 -1.0000000e+00 -2.2204460e-16
      outer loop
         vertex 6.4000001e+01 1.0000000e-06 6.0000000e+00
         vertex 6.8000001e+01 1.0000000e-06 6.0000000e+00
         vertex 6.6000001e+01 1.0000000e-06 9.0000000e+00
      endloop
   endfacet
   facet normal 0.0000000e+00 -1.0000000e+00 -2.2204460e-16
      outer loop
         vertex 6.6000001e+01 1.0000000e-06 9.0000000e+00
         vertex 6.8000001e+01 1.0000000e-06 6.0000000e+00
         vertex 6.8000001e+01 1.0000000e-06 9.0000000e+00
      endloop
   endfacet
   facet normal 0.0000000e+00 -1.0000000e+00 -2.2204460e-16
      outer loop
         vertex 6.8000001e+01 1.0000000e-06 6.0000000e+00
         vertex 1.0000000e+02 1.0000000e-06 3.5527137e-15
         vertex 7.5000001e+01 1.0000000e-06 6.0000000e+00
      endloop
   endfacet
   facet normal 0.0000000e+00 -1.0000000e+00 -2.2204460e-16
      outer loop
         vertex 7.5000001e+01 1.0000000e-06 6.0000000e+00
         vertex 1.0000000e+02 1.0000000e-06 3.5527137e-15
         vertex 1.0000000e+02 1.0000000e-06 1.0000000e+01
      endloop
   endfacet
   facet normal -0.0000000e+00 -1.0000000e+00 -2.2204460e-16
      outer loop
         vertex 7.5000001e+01 1.0000000e-06 6.0000000e+00
         vertex 1.0000000e+02 1.0000000e-06 1.0000000e+01
         vertex 8.0000001e+01 1.0000000e-06 1.0000000e+01
      endloop
   endfacet
   facet normal 6.0380719e-23 -1.0000000e+00 -2.2204439e-16
      outer loop
         vertex 3.2831335e+01 9.9999999e-07 2.7700513e+01
         vertex 3.1942057e+01 9.9999999e-07 2.8228146e+01
         vertex 2.5000001e+01 9.9999999e-07 3.0000000e+01
      endloop
   endfacet
   facet normal -8.6310295e-23 -1.0000000e+00 -2.2204496e-16
      outer loop
         vertex 2.5000001e+01 9.9999999e-07 3.0000000e+01
         vertex 3.1942057e+01 9.9999999e-07 2.8228146e+01
         vertex 3.1017404e+01 9.9999999e-07 2.8690994e+01
      endloop
   endfacet
   facet normal -7.5678628e-23 -1.0000000e+00 -2.2204491e-16
      outer loop
         vertex 2.5000001e+01 9.9999999e-07 3.0000000e+01
         vertex 3.1017404e+01 9.9999999e-07 2.8690994e+01
         vertex 3.0062088e+01 9.9999999e-07 2.9086699e+01
      endloop
   endfacet
   facet normal 9.9980454e-23 -1.0000000e+00 -2.2204394e-16
      outer loop
         vertex 3.0062088e+01 9.9999999e-07 2.9086699e+01
         vertex 2.9080976e+01 9.9999999e-07 2.9413244e+01
         vertex 2.5000001e+01 9.9999999e-07 3.0000000e+01
      endloop
   endfacet
   facet normal -1.1832536e-22 -1.0000000e+00 -2.2204546e-16
      outer loop
         vertex 2.5000001e+01 9.9999999e-07 3.0000000e+01
         vertex 2.9080976e+01 9.9999999e-07 2.9413244e+01
         vertex 2.8079069e+01 9.9999999e-07 2.9668966e+01
      endloop
   endfacet
   facet normal -3.5568540e-23 -1.0000000e+00 -2.2204469e-16
      outer loop
         vertex 2.5000001e+01 9.9999999e-07 3.0000000e+01
         vertex 2.8079069e+01 9.9999999e-07 2.9668966e+01
         vertex 2.7061471e+01 9.9999999e-07 2.9852561e+01
      endloop
   endfacet
   facet normal 1.8377989e-22 -1.0000000e+00 -2.2204162e-16
      outer loop
         vertex 2.7061471e+01 9.9999999e-07 2.9852561e+01
         vertex 2.6033369e+01 9.9999999e-07 2.9963093e+01
         vertex 2.5000001e+01 9.9999999e-07 3.0000000e+01
      endloop
   endfacet
endsolid AutoCAD
