v 100 9.760260582e-07 -5.960464478e-07
vn 0.04035466164 -0.9786005616 -0.2017733008
v 0 9.760260582e-07 -5.960464478e-07
vn -0.02075468563 -0.9901638627 -0.1383645684
v 100 2.000000954 -5.960464478e-07
vn 0.01905799285 0.9243127108 -0.3811598718
v 0 2.000000954 -5.960464478e-07
vn -0.04178324342 0.9966968298 -0.06963873655
v 100 9.760260582e-07 10
vn 0.0587981008 -0.9701687098 0.2351924032
v 100 2.000000954 10
vn 0.1194695383 0.9856237173 0.1194695383
v 80 9.760260582e-07 10
vn -0.1579905003 -0.7899525166 0.5924643874
v 80 2.000000954 10
vn -0.06629025936 0.6629024744 0.7457652688
v 75 9.760260582e-07 5.999999523
vn -0.02138915099 -0.9945955276 0.101598464
v 75 2.000000954 5.999999523
vn -0.04279298708 0.9949369431 0.09093509614
v 68 9.760260582e-07 5.999999523
vn 0.1730159372 -0.9732146859 0.1513889581
v 68 2.000000954 5.999999523
vn 0.0845720768 0.951435864 0.2960022688
v 64 9.760260582e-07 5.999999523
vn -0.07807200402 -0.9173460603 0.3903600276
v 64 2.000000954 5.999999523
vn -0.1618889272 0.9510974884 0.2630695105
v 55 9.760260582e-07 5.999999523
vn 0.04241128638 -0.9977424145 0.05207102001
v 55 2.000000954 5.999999523
vn 0.02123132907 0.9989509583 0.040574193
v 35.24264145 9.760260582e-07 25.75735855
vn 0.01852744631 -0.9996549487 0.01861881651
v 35.24264145 2.000000954 25.75735855
vn 0.03517313674 0.9987604618 0.035218779
v 25.00000191 9.760260582e-07 30
vn 0.0005147319171 -0.7024379373 0.7117447853
v 26.03336906 9.760260582e-07 29.9630928
vn 0.0594555214 -0.01230013743 0.9981551766
v 25.00000191 2.000000954 30
vn 0.001290952205 0.8808602691 0.473374635
v 26.03336906 2.000000954 29.9630928
vn 0.08320078254 0.01230013371 0.9964569211
v 27.06147194 9.760260582e-07 29.85256195
vn 0.1303636432 -0.0490838401 0.9902505279
v 27.06147194 2.000000954 29.85256195
vn 0.1539020985 0.04908385128 0.9868662357
v 28.07906914 9.760260582e-07 29.66896629
vn 0.1997068226 -0.1096720397 0.9736987352
v 28.07906914 2.000000954 29.66896629
vn 0.2228306234 0.1096720248 0.9686684608
v 29.08097649 9.760260582e-07 29.41324425
vn 0.2652656138 -0.1919356585 0.9448782206
v 29.08097649 2.000000954 29.41324425
vn 0.2876848578 0.1919356585 0.9382953048
v 30.06208801 9.760260582e-07 29.08669853
vn 0.3236234784 -0.2912174165 0.9002556801
v 30.06208801 2.000000954 29.08669853
vn 0.3449635208 0.2912174463 0.8922962546
v 31.01740456 9.760260582e-07 28.69099426
vn 0.3708004057 -0.3998988271 0.8382052183
v 31.01740456 2.000000954 28.69099426
vn 0.3906506002 0.3998988867 0.8291398883
v 31.94205666 9.760260582e-07 28.2281456
vn 0.4036330283 -0.5085169077 0.7605859041
v 31.94205666 2.000000954 28.2281456
vn 0.4216253459 0.5085170269 0.7507612705
v 32.83133316 9.760260582e-07 27.70051384
vn 0.4687108099 -0.4983869791 0.7293288708
v 32.83133316 2.000000954 27.70051384
vn 0.3548021615 0.754532516 0.5520834327
v 33.68070602 2.000000954 27.11078453
vn 0.4858030379 0.5855337381 0.6489573717
v 33.68070602 9.760260582e-07 27.11078453
vn 0.3410888016 -0.8222221136 0.4556415975
v 34.48584366 9.760260582e-07 26.46196365
vn 0.03526706994 -0.9985078573 0.04169302806
v 34.48584366 2.000000954 26.46196365
vn 0.0362496376 0.9985078573 0.04084157944
v 0 9.760260582e-07 30
vn -0.102165252 -0.9938561916 0.04256885126
v 0 2.000000954 30
vn -0.05114382505 0.9950469732 0.08523970842
# mm_gid 0
g mmGroup0
f 1//1 2//2 3//3 
f 3//3 2//2 4//4 
f 5//5 1//1 6//6 
f 6//6 1//1 3//3 
f 9//9 7//7 10//10 
f 10//10 7//7 8//8 
f 11//11 9//9 12//12 
f 12//12 9//9 10//10 
f 15//15 13//13 16//16 
f 16//16 13//13 14//14 
f 17//17 15//15 18//18 
f 18//18 15//15 16//16 
f 19//19 20//20 21//21 
f 21//21 20//20 22//22 
f 22//22 20//20 23//23 
f 22//22 23//23 24//24 
f 24//24 23//23 25//25 
f 24//24 25//25 26//26 
f 26//26 25//25 27//27 
f 26//26 27//27 28//28 
f 28//28 27//27 29//29 
f 28//28 29//29 30//30 
f 30//30 29//29 31//31 
f 30//30 31//31 32//32 
f 32//32 31//31 33//33 
f 32//32 33//33 34//34 
f 34//34 33//33 35//35 
f 34//34 35//35 36//36 
f 36//36 35//35 37//37 
f 37//37 35//35 38//38 
f 37//37 38//38 39//39 
f 37//37 39//39 40//40 
f 40//40 39//39 17//17 
f 40//40 17//17 18//18 
f 41//41 19//19 42//42 
f 42//42 19//19 21//21 
f 2//2 41//41 4//4 
f 4//4 41//41 42//42 
f 42//42 18//18 4//4 
f 4//4 18//18 16//16 
f 4//4 16//16 3//3 
f 3//3 16//16 14//14 
f 3//3 14//14 12//12 
f 18//18 42//42 40//40 
f 40//40 42//42 21//21 
f 40//40 21//21 37//37 
f 37//37 21//21 36//36 
f 36//36 21//21 34//34 
f 34//34 21//21 32//32 
f 32//32 21//21 30//30 
f 30//30 21//21 28//28 
f 28//28 21//21 26//26 
f 26//26 21//21 24//24 
f 24//24 21//21 22//22 
f 12//12 10//10 3//3 
f 3//3 10//10 6//6 
f 6//6 10//10 8//8 
f 2//2 17//17 41//41 
f 41//41 17//17 39//39 
f 41//41 39//39 19//19 
f 19//19 39//39 38//38 
f 19//19 38//38 35//35 
f 17//17 2//2 15//15 
f 15//15 2//2 1//1 
f 15//15 1//1 13//13 
f 13//13 1//1 11//11 
f 11//11 1//1 9//9 
f 9//9 1//1 5//5 
f 9//9 5//5 7//7 
f 35//35 33//33 19//19 
f 19//19 33//33 31//31 
f 19//19 31//31 29//29 
f 29//29 27//27 19//19 
f 19//19 27//27 25//25 
f 19//19 25//25 23//23 
f 23//23 20//20 19//19 
